<?xml version="1.0" encoding="UTF-8" standalone="no"?>
<!DOCTYPE svg PUBLIC "-//W3C//DTD SVG 1.1//EN"
 "http://www.w3.org/Graphics/SVG/1.1/DTD/svg11.dtd">
<!-- Generated by graphviz version 2.47.0 (20210316.0004)
 -->
<!-- Title: dependencies Pages: 1 -->
<svg width="999pt" height="295pt"
 viewBox="0.00 0.00 999.00 295.00" xmlns="http://www.w3.org/2000/svg" xmlns:xlink="http://www.w3.org/1999/xlink">
<g id="graph0" class="graph" transform="scale(1 1) rotate(0) translate(4 291)">
<title>dependencies</title>
<polygon fill="white" stroke="transparent" points="-4,4 -4,-291 995,-291 995,4 -4,4"/>
<text text-anchor="start" x="474.51" y="-42.4" font-family="Times-12" font-weight="bold" font-size="14.00">Legend</text>
<polygon fill="#ffffb3" stroke="transparent" points="261.5,-10 261.5,-30 281.5,-30 281.5,-10 261.5,-10"/>
<text text-anchor="start" x="285.13" y="-15.4" font-family="Times-12" font-size="14.00"> &#160;Declarations</text>
<polygon fill="#8dd3c7" stroke="transparent" points="374.5,-10 374.5,-30 394.5,-30 394.5,-10 374.5,-10"/>
<text text-anchor="start" x="398.23" y="-15.4" font-family="Times-12" font-size="14.00"> &#160;Module</text>
<polygon fill="#80b1d3" stroke="transparent" points="460.5,-10 460.5,-30 480.5,-30 480.5,-10 460.5,-10"/>
<text text-anchor="start" x="484.28" y="-15.4" font-family="Times-12" font-size="14.00"> &#160;Bootstrap</text>
<polygon fill="#fdb462" stroke="transparent" points="557.5,-10 557.5,-30 577.5,-30 577.5,-10 557.5,-10"/>
<text text-anchor="start" x="581.17" y="-15.4" font-family="Times-12" font-size="14.00"> &#160;Providers</text>
<polygon fill="#fb8072" stroke="transparent" points="653.5,-10 653.5,-30 673.5,-30 673.5,-10 653.5,-10"/>
<text text-anchor="start" x="677.23" y="-15.4" font-family="Times-12" font-size="14.00"> &#160;Exports</text>
<g id="clust1" class="cluster">
<title>cluster_AppModule</title>
<polygon fill="none" stroke="black" stroke-dasharray="1,5" points="23,-146 23,-271 143,-271 143,-146 23,-146"/>
</g>
<g id="clust3" class="cluster">
<title>cluster_AppModule_imports</title>
<polygon fill="none" stroke="black" points="31,-154 31,-206 135,-206 135,-154 31,-154"/>
</g>
<g id="clust7" class="cluster">
<title>cluster_AuthModule</title>
<polygon fill="none" stroke="black" stroke-dasharray="1,5" points="8,-70 8,-138 158,-138 158,-70 8,-70"/>
</g>
<g id="clust12" class="cluster">
<title>cluster_AuthModule_providers</title>
<polygon fill="none" stroke="black" points="16,-78 16,-130 150,-130 150,-78 16,-78"/>
</g>
<g id="clust13" class="cluster">
<title>cluster_TemplatePlaygroundModule</title>
<polygon fill="none" stroke="black" stroke-dasharray="1,5" points="166,-70 166,-279 983,-279 983,-70 166,-70"/>
</g>
<g id="clust14" class="cluster">
<title>cluster_TemplatePlaygroundModule_declarations</title>
<polygon fill="none" stroke="black" points="761,-78 761,-130 975,-130 975,-78 761,-78"/>
</g>
<g id="clust18" class="cluster">
<title>cluster_TemplatePlaygroundModule_bootstrap</title>
<polygon fill="none" stroke="black" points="452,-219 452,-271 670,-271 670,-219 452,-219"/>
</g>
<g id="clust19" class="cluster">
<title>cluster_TemplatePlaygroundModule_providers</title>
<polygon fill="none" stroke="black" points="174,-78 174,-130 753,-130 753,-78 174,-78"/>
</g>
<!-- AuthModule -->
<g id="node1" class="node">
<title>AuthModule</title>
<polygon fill="#8dd3c7" stroke="black" points="126.55,-198 123.55,-202 102.55,-202 99.55,-198 39.45,-198 39.45,-162 126.55,-162 126.55,-198"/>
<text text-anchor="middle" x="83" y="-175.8" font-family="Times,serif" font-size="14.00">AuthModule</text>
</g>
<!-- AppModule -->
<g id="node2" class="node">
<title>AppModule</title>
<polygon fill="#8dd3c7" stroke="black" points="124.66,-263 121.66,-267 100.66,-267 97.66,-263 41.34,-263 41.34,-227 124.66,-227 124.66,-263"/>
<text text-anchor="middle" x="83" y="-240.8" font-family="Times,serif" font-size="14.00">AppModule</text>
</g>
<!-- AuthModule&#45;&gt;AppModule -->
<g id="edge1" class="edge">
<title>AuthModule&#45;&gt;AppModule</title>
<path fill="none" stroke="black" d="M83,-198.11C83,-198.11 83,-216.99 83,-216.99"/>
<polygon fill="black" stroke="black" points="79.5,-216.99 83,-226.99 86.5,-216.99 79.5,-216.99"/>
</g>
<!-- AuthService -->
<g id="node3" class="node">
<title>AuthService</title>
<ellipse fill="#fdb462" stroke="black" cx="83" cy="-104" rx="59.11" ry="18"/>
<text text-anchor="middle" x="83" y="-99.8" font-family="Times,serif" font-size="14.00">AuthService</text>
</g>
<!-- AuthService&#45;&gt;AuthModule -->
<g id="edge2" class="edge">
<title>AuthService&#45;&gt;AuthModule</title>
<path fill="none" stroke="black" d="M83,-122.01C83,-122.01 83,-151.85 83,-151.85"/>
<polygon fill="black" stroke="black" points="79.5,-151.85 83,-161.85 86.5,-151.85 79.5,-151.85"/>
</g>
<!-- TemplatePlaygroundComponent -->
<g id="node4" class="node">
<title>TemplatePlaygroundComponent</title>
<polygon fill="#ffffb3" stroke="black" points="967.25,-122 768.75,-122 768.75,-86 967.25,-86 967.25,-122"/>
<text text-anchor="middle" x="868" y="-99.8" font-family="Times,serif" font-size="14.00">TemplatePlaygroundComponent</text>
</g>
<!-- TemplatePlaygroundModule -->
<g id="node5" class="node">
<title>TemplatePlaygroundModule</title>
<polygon fill="#8dd3c7" stroke="black" points="649.47,-198 646.47,-202 625.47,-202 622.47,-198 472.53,-198 472.53,-162 649.47,-162 649.47,-198"/>
<text text-anchor="middle" x="561" y="-175.8" font-family="Times,serif" font-size="14.00">TemplatePlaygroundModule</text>
</g>
<!-- TemplatePlaygroundComponent&#45;&gt;TemplatePlaygroundModule -->
<g id="edge3" class="edge">
<title>TemplatePlaygroundComponent&#45;&gt;TemplatePlaygroundModule</title>
<path fill="none" stroke="black" d="M868,-122.01C868,-144.49 868,-180 868,-180 868,-180 659.8,-180 659.8,-180"/>
<polygon fill="black" stroke="black" points="659.8,-176.5 649.8,-180 659.8,-183.5 659.8,-176.5"/>
</g>
<!-- TemplatePlaygroundComponent  -->
<g id="node6" class="node">
<title>TemplatePlaygroundComponent </title>
<polygon fill="#80b1d3" stroke="black" points="662.25,-263 459.75,-263 459.75,-227 662.25,-227 662.25,-263"/>
<text text-anchor="middle" x="561" y="-240.8" font-family="Times,serif" font-size="14.00">TemplatePlaygroundComponent </text>
</g>
<!-- TemplatePlaygroundModule&#45;&gt;TemplatePlaygroundComponent  -->
<g id="edge4" class="edge">
<title>TemplatePlaygroundModule&#45;&gt;TemplatePlaygroundComponent </title>
<path fill="none" stroke="black" stroke-dasharray="1,5" d="M561,-198.11C561,-198.11 561,-216.99 561,-216.99"/>
<polygon fill="black" stroke="black" points="557.5,-216.99 561,-226.99 564.5,-216.99 557.5,-216.99"/>
</g>
<!-- HbsRenderService -->
<g id="node7" class="node">
<title>HbsRenderService</title>
<ellipse fill="#fdb462" stroke="black" cx="662" cy="-104" rx="83.37" ry="18"/>
<text text-anchor="middle" x="662" y="-99.8" font-family="Times,serif" font-size="14.00">HbsRenderService</text>
</g>
<!-- HbsRenderService&#45;&gt;TemplatePlaygroundModule -->
<g id="edge5" class="edge">
<title>HbsRenderService&#45;&gt;TemplatePlaygroundModule</title>
<path fill="none" stroke="black" d="M614.03,-119.02C614.03,-119.02 614.03,-151.8 614.03,-151.8"/>
<polygon fill="black" stroke="black" points="610.53,-151.8 614.03,-161.8 617.53,-151.8 610.53,-151.8"/>
</g>
<!-- TemplateEditorService -->
<g id="node8" class="node">
<title>TemplateEditorService</title>
<ellipse fill="#fdb462" stroke="black" cx="460" cy="-104" rx="100.7" ry="18"/>
<text text-anchor="middle" x="460" y="-99.8" font-family="Times,serif" font-size="14.00">TemplateEditorService</text>
</g>
<!-- TemplateEditorService&#45;&gt;TemplatePlaygroundModule -->
<g id="edge6" class="edge">
<title>TemplateEditorService&#45;&gt;TemplatePlaygroundModule</title>
<path fill="none" stroke="black" d="M516.56,-119.02C516.56,-119.02 516.56,-151.8 516.56,-151.8"/>
<polygon fill="black" stroke="black" points="513.06,-151.8 516.56,-161.8 520.06,-151.8 513.06,-151.8"/>
</g>
<!-- ZipExportService -->
<g id="node9" class="node">
<title>ZipExportService</title>
<ellipse fill="#fdb462" stroke="black" cx="262" cy="-104" rx="79.87" ry="18"/>
<text text-anchor="middle" x="262" y="-99.8" font-family="Times,serif" font-size="14.00">ZipExportService</text>
</g>
<!-- ZipExportService&#45;&gt;TemplatePlaygroundModule -->
<g id="edge7" class="edge">
<title>ZipExportService&#45;&gt;TemplatePlaygroundModule</title>
<path fill="none" stroke="black" d="M262,-122.01C262,-144.49 262,-180 262,-180 262,-180 462.5,-180 462.5,-180"/>
<polygon fill="black" stroke="black" points="462.5,-183.5 472.5,-180 462.5,-176.5 462.5,-183.5"/>
</g>
</g>
</svg>
